<svg xmlns="http://www.w3.org/2000/svg" viewBox="0 0 480 100" width="480" height="100" role="img" aria-label="Ignacia Ayala, Counselor">
  <g><path d="M6,-8 C4,-28 24,-36 44,-32 C62,-28 70,-12 66,6 C62,22 46,32 28,30 C10,28 8,12 6,-8 Z" transform="translate(4,38) rotate(-6)" fill="#C1653E"></path>
  <path d="M6,-8 C4,-28 24,-36 44,-32 C62,-28 70,-12 66,6 C62,22 46,32 28,30 C10,28 8,12 6,-8 Z" transform="translate(28,58) scale(0.8) rotate(18)" fill="#4A3428"></path></g>
  <text x="112" y="54" font-family="var(--font-caprasimo, 'Playfair Display'), Georgia, serif" font-size="42" fill="#4A3428">Ignacia Ayala</text>
  <text x="114" y="76" font-family="var(--font-figtree, 'Inter'), -apple-system, sans-serif" font-size="14" letter-spacing="3" fill="#C1653E">COUNSELOR</text>
</svg>
